<svg version="1.1" xmlns="http://www.w3.org/2000/svg" viewBox="0 0 700.26919487681 783.0415788810177" width="700.26919487681" height="783.0415788810177">
  <!-- svg-source:excalidraw -->
  
  <defs>
    <style class="style-fonts">
      @font-face {
        font-family: "Virgil";
        src: url("https://excalidraw.com/Virgil.woff2");
      }
      @font-face {
        font-family: "Cascadia";
        src: url("https://excalidraw.com/Cascadia.woff2");
      }
    </style>
  </defs>
  <rect x="0" y="0" width="700.26919487681" height="783.0415788810177" fill="#ffffff"></rect><g stroke-linecap="round" transform="translate(218.5 572.5415788810177) rotate(0 233.48357576387627 44)"><path d="M0.88 0.61 C150.84 -2.83, 301.56 -2.5, 467.15 0.78 M-0.32 -0.36 C174.12 0.03, 348.38 -0.11, 466.57 0.28 M466.18 -1.98 C465.6 28.27, 465.59 60.33, 466.29 89.1 M467.73 -0.01 C466.43 18.61, 467.32 39.06, 467.9 88.3 M466.93 88.23 C290.2 90.14, 114.61 89.39, -0.37 88.34 M467.07 87.95 C306.71 86.79, 146.34 86.03, 0.21 87.55 M-1.82 88.18 C1.87 67.02, 2.06 43.26, 0.39 0.01 M0.28 87.86 C1.07 54.63, 0.03 22.72, -0.88 -0.94" stroke="#000000" stroke-width="1" fill="none"></path></g><g stroke-linecap="round" transform="translate(242.5 589.5415788810177) rotate(0 28 28)"><path d="M18.39 1.79 C23.55 -0.14, 32.36 0.57, 37.88 2.73 C43.4 4.88, 48.52 9.75, 51.53 14.73 C54.53 19.71, 56.74 26.82, 55.9 32.6 C55.05 38.37, 51.29 45.59, 46.47 49.38 C41.65 53.17, 33.22 55.35, 26.98 55.33 C20.74 55.3, 13.39 53.02, 9.02 49.24 C4.65 45.45, 1.46 38.5, 0.73 32.62 C0.01 26.73, 0.58 19.32, 4.67 13.93 C8.75 8.55, 20.72 2.41, 25.24 0.32 C29.75 -1.76, 31.74 1.07, 31.76 1.41 M17.93 1.55 C23.57 -0.43, 33.18 1, 38.8 3.09 C44.43 5.18, 48.96 9.24, 51.69 14.07 C54.41 18.89, 56.06 26.14, 55.14 32.04 C54.22 37.95, 50.94 45.5, 46.17 49.5 C41.41 53.51, 32.44 56.37, 26.54 56.08 C20.64 55.78, 15.05 51.7, 10.77 47.71 C6.5 43.72, 1.92 37.61, 0.91 32.14 C-0.1 26.67, 1.81 19.79, 4.72 14.92 C7.62 10.04, 16.08 4.9, 18.34 2.87 C20.61 0.85, 17.93 2.34, 18.31 2.76" stroke="#000000" stroke-width="1" fill="none"></path></g><g stroke-linecap="round" transform="translate(412.5 587.5415788810177) rotate(0 28 28)"><path d="M21.76 0.72 C27.41 -0.63, 36.2 0.75, 41.68 3.63 C47.17 6.52, 52.6 12.49, 54.67 18.05 C56.73 23.62, 56.22 31.33, 54.09 37.04 C51.96 42.74, 47.01 49.28, 41.89 52.3 C36.77 55.32, 29.3 56.27, 23.39 55.17 C17.48 54.07, 10.33 50.18, 6.42 45.69 C2.51 41.19, 0 33.95, -0.06 28.2 C-0.12 22.44, 1.46 15.95, 6.04 11.16 C10.63 6.38, 23.34 1.29, 27.43 -0.49 C31.53 -2.27, 30.89 -0.14, 30.63 0.48 M26.87 -1.34 C32.79 -2.22, 39.95 0.98, 44.78 4.91 C49.6 8.84, 54.49 16.18, 55.83 22.25 C57.16 28.33, 55.59 36.03, 52.78 41.34 C49.96 46.66, 44.16 51.67, 38.92 54.16 C33.69 56.64, 26.82 58.06, 21.38 56.24 C15.93 54.43, 9.79 48.58, 6.24 43.27 C2.7 37.96, -0.14 30.37, 0.13 24.4 C0.4 18.44, 3.7 11.72, 7.89 7.49 C12.07 3.27, 22.16 0.05, 25.22 -0.93 C28.28 -1.92, 25.95 1.04, 26.24 1.6" stroke="#000000" stroke-width="1" fill="none"></path></g><g stroke-linecap="round" transform="translate(586.5 589.5415788810177) rotate(0 28 28)"><path d="M35.66 0.34 C41.21 1.52, 47.6 7, 51.12 12.07 C54.63 17.15, 57.33 24.91, 56.76 30.81 C56.2 36.7, 52.13 43.33, 47.72 47.45 C43.31 51.57, 36.25 54.98, 30.29 55.55 C24.33 56.11, 16.95 54.12, 11.96 50.86 C6.98 47.61, 1.89 41.62, 0.4 36.02 C-1.08 30.42, 0.55 22.96, 3.06 17.27 C5.56 11.58, 9.48 4.27, 15.43 1.87 C21.38 -0.54, 34.27 2.57, 38.75 2.85 C43.22 3.14, 42.66 3.33, 42.27 3.56 M32.94 1.52 C38.44 2.28, 47.1 6.31, 51.11 11.08 C55.11 15.86, 57.24 23.89, 56.96 30.15 C56.68 36.41, 53.49 44.15, 49.42 48.62 C45.35 53.08, 38.77 56.29, 32.53 56.94 C26.3 57.59, 17.41 55.9, 12.02 52.54 C6.62 49.19, 2.01 42.78, 0.18 36.8 C-1.66 30.82, -1.68 22.39, 1.01 16.64 C3.71 10.89, 10.64 5.13, 16.35 2.29 C22.06 -0.54, 32.09 -0.2, 35.29 -0.36 C38.49 -0.52, 36.03 0.69, 35.55 1.32" stroke="#000000" stroke-width="1" fill="none"></path></g><g stroke-linecap="round" transform="translate(212.5 413.5415788810177) rotate(0 236.93408660114068 44)"><path d="M-0.25 -0.14 C167.91 -0.74, 337.21 -0.34, 473.66 0.84 M-0.3 0.18 C133.3 -0.67, 266.68 -0.6, 474.07 -0.33 M475.62 -1.31 C472.68 25.81, 476.2 53.25, 472.61 87.3 M473.43 -0.87 C472.31 29.93, 473.97 59.78, 473.58 87.23 M473.36 87.87 C338.02 88.82, 199.72 89.16, -0.34 88.34 M474.16 87.77 C358.18 86.86, 242.72 86.75, 0.28 88.38 M-1.31 86.36 C-0.46 69.35, -0.62 52.24, 1.87 1.22 M0.11 87.92 C-1.5 64.23, -1.71 39.92, -0.76 -0.72" stroke="#000000" stroke-width="1" fill="none"></path></g><g stroke-linecap="round" transform="translate(236.5 430.5415788810177) rotate(0 28 28)"><path d="M19.24 1.15 C24.79 -1.05, 33.84 -0.48, 39.4 1.84 C44.96 4.16, 50.02 9.7, 52.58 15.09 C55.13 20.49, 55.95 28.41, 54.72 34.2 C53.48 39.98, 49.79 46.19, 45.19 49.81 C40.58 53.43, 33 56.19, 27.09 55.91 C21.18 55.62, 14.18 51.96, 9.74 48.1 C5.29 44.23, 1.17 38.39, 0.42 32.72 C-0.34 27.05, 1.65 19.58, 5.19 14.07 C8.73 8.55, 18.44 1.74, 21.66 -0.36 C24.88 -2.45, 24.48 0.99, 24.52 1.5 M23.14 -0.23 C28.37 -1.53, 35.58 -0.72, 40.72 2.62 C45.86 5.96, 51.86 14.04, 53.99 19.8 C56.13 25.56, 55.74 31.79, 53.54 37.17 C51.35 42.55, 45.86 48.91, 40.83 52.09 C35.8 55.26, 29.22 57.26, 23.36 56.21 C17.5 55.15, 9.34 50.49, 5.67 45.76 C2.01 41.04, 1.45 33.74, 1.37 27.85 C1.28 21.97, 1.61 14.92, 5.15 10.45 C8.68 5.97, 19.7 2.61, 22.58 1 C25.46 -0.61, 22.42 0.27, 22.41 0.8" stroke="#000000" stroke-width="1" fill="none"></path></g><g stroke-linecap="round"><g transform="translate(259.90087146809947 487.452615125799) rotate(0 1.4866880624524015 53.456516868154694)"><path d="M0.11 0.8 C0.73 18.46, 3.56 87.61, 4.27 105.17 M-1.3 0.17 C-0.91 18.12, 2.36 89.38, 3.15 106.75" stroke="#000000" stroke-width="1" fill="none"></path></g><g transform="translate(259.90087146809947 487.452615125799) rotate(0 1.4866880624524015 53.456516868154694)"><path d="M-7.05 78.5 C-4.47 88.17, 1.15 97.91, 2.85 105.88 M-9.13 78.62 C-4.99 88.95, 0.95 100.07, 3.42 106.65" stroke="#000000" stroke-width="1" fill="none"></path></g><g transform="translate(259.90087146809947 487.452615125799) rotate(0 1.4866880624524015 53.456516868154694)"><path d="M13.45 77.57 C8.96 87.58, 7.52 97.64, 2.85 105.88 M11.37 77.69 C7.93 88.56, 6.29 100.02, 3.42 106.65" stroke="#000000" stroke-width="1" fill="none"></path></g></g><g transform="translate(47.5 604.0415788810177) rotate(0 70 12.5)"><text x="0" y="18" font-family="Virgil, Segoe UI Emoji" font-size="20px" fill="#000000" text-anchor="start" style="white-space: pre;" direction="ltr">Base Services</text></g><g transform="translate(232 733.5415788810177) rotate(270 27 12.5)"><text x="0" y="18" font-family="Virgil, Segoe UI Emoji" font-size="20px" fill="#000000" text-anchor="start" style="white-space: pre;" direction="ltr">regex</text></g><g transform="translate(404.5 723.5415788810177) rotate(270 31 12.5)"><text x="0" y="18" font-family="Virgil, Segoe UI Emoji" font-size="20px" fill="#000000" text-anchor="start" style="white-space: pre;" direction="ltr">render</text></g><g transform="translate(400.994396181851 10) rotate(0 42.5 12.5)"><text x="0" y="18" font-family="Virgil, Segoe UI Emoji" font-size="20px" fill="#000000" text-anchor="start" style="white-space: pre;" direction="ltr">UI Calls</text></g><g stroke-linecap="round"><g transform="translate(363.4306810193784 71.60408669811466) rotate(0 -43.27130481794933 63.101351138411665)"><path d="M0.13 -0.48 C-14.34 20.77, -72.32 105.54, -86.67 127.03 M-1.26 -1.77 C-15.37 19.62, -70.16 106.02, -84.41 127.98" stroke="#000000" stroke-width="1" fill="none"></path></g><g transform="translate(363.4306810193784 71.60408669811466) rotate(0 -43.27130481794933 63.101351138411665)"><path d="M-78.63 97.26 C-81.88 107.63, -81.54 117.96, -83.63 127.21 M-78.27 99.67 C-79.98 104.79, -81.15 112.32, -84.11 127.9" stroke="#000000" stroke-width="1" fill="none"></path></g><g transform="translate(363.4306810193784 71.60408669811466) rotate(0 -43.27130481794933 63.101351138411665)"><path d="M-61.36 108.33 C-69.97 115.25, -75.04 122.11, -83.63 127.21 M-60.99 110.75 C-66.89 113.35, -72.18 118.24, -84.11 127.9" stroke="#000000" stroke-width="1" fill="none"></path></g></g><g stroke-linecap="round"><g transform="translate(444.5700308804917 83.83560372117479) rotate(0 -5.733691173594195 58.2194331332149)"><path d="M-1.13 -1.19 C-3.05 18.11, -10.22 96.56, -11.95 116.13 M0.48 0.8 C-1.03 20.26, -7.53 98.17, -9.7 117.63" stroke="#000000" stroke-width="1" fill="none"></path></g><g transform="translate(444.5700308804917 83.83560372117479) rotate(0 -5.733691173594195 58.2194331332149)"><path d="M-19.22 87.12 C-15.29 95.58, -13.12 102.42, -9.77 116.82 M-17.8 88.01 C-15.18 97.25, -11.88 105.41, -10.2 118.15" stroke="#000000" stroke-width="1" fill="none"></path></g><g transform="translate(444.5700308804917 83.83560372117479) rotate(0 -5.733691173594195 58.2194331332149)"><path d="M1.21 89.07 C-0.27 96.82, -3.51 103.15, -9.77 116.82 M2.63 89.96 C-0.79 98.69, -3.52 106.27, -10.2 118.15" stroke="#000000" stroke-width="1" fill="none"></path></g></g><g stroke-linecap="round"><g transform="translate(522.7093807416052 81.69965944182366) rotate(0 36.85604443950501 60.797663620347755)"><path d="M-0.49 -0.42 C11.76 19.91, 61.72 101.54, 74.2 122.12 M1.46 -1.68 C13.52 18.77, 61.39 102.25, 73.47 123.28" stroke="#000000" stroke-width="1" fill="none"></path></g><g transform="translate(522.7093807416052 81.69965944182366) rotate(0 36.85604443950501 60.797663620347755)"><path d="M49.84 104.62 C57.59 111.96, 67.4 117.6, 74.81 123.43 M49.84 104.82 C56.87 109.96, 65.44 116.07, 74.15 122.37" stroke="#000000" stroke-width="1" fill="none"></path></g><g transform="translate(522.7093807416052 81.69965944182366) rotate(0 36.85604443950501 60.797663620347755)"><path d="M67.63 94.4 C69.01 105.34, 72.43 114.65, 74.81 123.43 M67.64 94.6 C69.11 102.9, 72.17 112.18, 74.15 122.37" stroke="#000000" stroke-width="1" fill="none"></path></g></g><g transform="translate(59 444.5415788810177) rotate(0 28 12.5)"><text x="0" y="18" font-family="Virgil, Segoe UI Emoji" font-size="20px" fill="#000000" text-anchor="start" style="white-space: pre;" direction="ltr">Plugin</text></g><g transform="translate(10 279.5415788810177) rotate(0 87.5 12.5)"><text x="0" y="18" font-family="Virgil, Segoe UI Emoji" font-size="20px" fill="#000000" text-anchor="start" style="white-space: pre;" direction="ltr">Resolved Services</text></g><g stroke-linecap="round"><g transform="translate(403.5 621.0415788810177) rotate(0 -49.614619405940175 -1.4933441381901957)"><path d="M-0.8 0.92 C-17.23 0.4, -82.16 -3.28, -98.43 -3.91" stroke="#000000" stroke-width="1.5" fill="none" stroke-dasharray="1.5 7"></path></g><g transform="translate(403.5 621.0415788810177) rotate(0 -49.614619405940175 -1.4933441381901957)"><path d="M-68.24 -13.5 C-78.64 -10.88, -85.83 -9.41, -96.79 -5.77" stroke="#000000" stroke-width="1.5" fill="none" stroke-dasharray="1.5 5"></path></g><g transform="translate(403.5 621.0415788810177) rotate(0 -49.614619405940175 -1.4933441381901957)"><path d="M-69.23 7 C-79.19 3.21, -86.07 -1.73, -96.79 -5.77" stroke="#000000" stroke-width="1.5" fill="none" stroke-dasharray="1.5 5"></path></g></g><g stroke-linecap="round" transform="translate(209.5 256.5415788810177) rotate(0 240.38459743840502 44)"><path d="M-0.05 0.48 C96.11 0.87, 192.89 1.39, 480.54 0.56 M0.12 -0.34 C148.42 -0.47, 297.76 -0.67, 481.12 -0.35 M481.51 -0.64 C482.15 19.3, 479.69 37.73, 480.49 89.73 M481.28 0.63 C480.22 33.96, 480.02 70.22, 480.38 87.89 M480.47 87.88 C337.7 87.83, 195.25 88.76, 0.64 87.14 M480.36 87.75 C309.6 88.27, 139.15 88.31, 0.16 88.3 M0.35 86.01 C2.23 53.87, 1.07 21.17, 0.46 -0.75 M0.5 88.51 C-0.87 58.74, -1.4 30.55, -0.8 0.13" stroke="#000000" stroke-width="1" fill="none"></path></g><g stroke-linecap="round" transform="translate(233.5 273.5415788810177) rotate(0 28 28)"><path d="M25.6 -0.09 C31.31 -1.12, 39.14 1.38, 44.15 4.78 C49.16 8.17, 54.02 14.67, 55.65 20.28 C57.28 25.89, 56.59 33.01, 53.94 38.44 C51.28 43.86, 45.03 50.15, 39.73 52.82 C34.42 55.5, 27.67 55.99, 22.09 54.49 C16.51 52.98, 10.08 48.43, 6.27 43.79 C2.46 39.16, -0.88 32.46, -0.78 26.67 C-0.68 20.88, 1.73 13.4, 6.85 9.06 C11.98 4.71, 25.18 1.96, 29.96 0.59 C34.75 -0.78, 35.59 0.5, 35.57 0.86 M40.55 3.36 C45.8 5.37, 52.08 10.33, 54.28 15.48 C56.48 20.63, 55.32 28.46, 53.77 34.26 C52.22 40.07, 49.71 46.7, 45 50.3 C40.28 53.9, 31.8 56.26, 25.49 55.87 C19.17 55.47, 11.4 52.18, 7.09 47.92 C2.77 43.66, -0.08 36.37, -0.41 30.31 C-0.74 24.25, 1.38 16.25, 5.11 11.55 C8.84 6.86, 15.99 3.89, 21.95 2.15 C27.91 0.4, 37.8 1.03, 40.87 1.09 C43.94 1.16, 40.74 2.11, 40.35 2.55" stroke="#000000" stroke-width="1" fill="none"></path></g><g stroke-linecap="round" transform="translate(403.5 271.5415788810177) rotate(0 28 28)"><path d="M29.22 0.69 C34.9 0.65, 42.75 4.3, 47.21 8.33 C51.67 12.36, 55.39 19.19, 55.97 24.9 C56.55 30.6, 54.03 37.46, 50.69 42.56 C47.35 47.65, 41.63 53.46, 35.9 55.47 C30.17 57.47, 21.92 57.18, 16.31 54.57 C10.7 51.97, 4.75 45.48, 2.23 39.85 C-0.3 34.22, -0.39 26.56, 1.16 20.8 C2.71 15.04, 6.09 8.66, 11.54 5.3 C16.99 1.94, 29.74 1.22, 33.85 0.65 C37.96 0.08, 36.39 1.3, 36.19 1.88 M41.67 4.09 C46.83 6.04, 51.22 10.42, 53.24 15.95 C55.27 21.48, 55.6 31.33, 53.81 37.25 C52.02 43.16, 47.4 48.54, 42.49 51.44 C37.58 54.33, 30.19 55.43, 24.35 54.59 C18.51 53.76, 11.54 50.63, 7.45 46.42 C3.36 42.22, 0.17 35.05, -0.19 29.36 C-0.54 23.66, 1.43 16.86, 5.3 12.27 C9.18 7.67, 17.39 3.17, 23.07 1.79 C28.75 0.41, 36.56 3.67, 39.4 3.98 C42.23 4.29, 40.29 3.5, 40.08 3.63" stroke="#000000" stroke-width="1" fill="none"></path></g><g stroke-linecap="round" transform="translate(577.5 273.5415788810177) rotate(0 28 28)"><path d="M33.12 0.45 C38.82 1.08, 46.12 5.48, 49.98 9.87 C53.84 14.27, 56.45 20.9, 56.28 26.82 C56.11 32.75, 52.71 40.77, 48.99 45.43 C45.26 50.09, 39.58 53.74, 33.94 54.78 C28.3 55.81, 20.65 54.36, 15.16 51.63 C9.67 48.9, 3.4 43.8, 0.99 38.39 C-1.42 32.98, -1.38 24.83, 0.68 19.17 C2.74 13.51, 7.39 7.56, 13.34 4.45 C19.28 1.34, 32.01 0.75, 36.36 0.5 C40.7 0.26, 39.43 2.26, 39.41 2.99 M26.66 -0.52 C31.97 -1.62, 38.01 0.78, 42.9 4.26 C47.78 7.73, 54.25 14.38, 55.95 20.33 C57.66 26.27, 56.06 34.42, 53.15 39.95 C50.24 45.48, 44.02 51.04, 38.51 53.51 C33 55.98, 25.65 56.46, 20.07 54.79 C14.5 53.11, 8.18 48.17, 5.06 43.47 C1.95 38.76, 0.67 32.71, 1.4 26.57 C2.13 20.42, 5.24 11.09, 9.43 6.59 C13.63 2.08, 23.84 0.77, 26.56 -0.46 C29.28 -1.69, 26 -1.2, 25.76 -0.78" stroke="#000000" stroke-width="1" fill="none"></path></g><g transform="translate(509.59844355342557 363.3887292602278) rotate(0 12 22.5)"><text x="0" y="32" font-family="Virgil, Segoe UI Emoji" font-size="36px" fill="#000000" text-anchor="start" style="white-space: pre;" direction="ltr">=</text></g><g transform="translate(499.57357287084733 515.3040142223069) rotate(0 12.5 22.5)"><text x="0" y="32" font-family="Virgil, Segoe UI Emoji" font-size="36px" fill="#000000" text-anchor="start" style="white-space: pre;" direction="ltr">+</text></g><g stroke-linecap="round"><g transform="translate(415.5 584.0415788810177) rotate(0 -54.18935199706817 -44.120250476757064)"><path d="M0.08 0.88 C-18.01 -13.82, -89.81 -72.72, -107.68 -87.51 M-1.34 0.29 C-19.63 -14.79, -90.77 -74.08, -108.46 -89.12" stroke="#000000" stroke-width="1" fill="none"></path></g><g transform="translate(415.5 584.0415788810177) rotate(0 -54.18935199706817 -44.120250476757064)"><path d="M-78.81 -78.3 C-89.14 -81.21, -100.22 -87.96, -108.5 -89.27 M-79.44 -79.42 C-90.37 -83.82, -102 -86.91, -108.22 -89.97" stroke="#000000" stroke-width="1" fill="none"></path></g><g transform="translate(415.5 584.0415788810177) rotate(0 -54.18935199706817 -44.120250476757064)"><path d="M-92.02 -62.59 C-97.53 -71.33, -103.73 -83.91, -108.5 -89.27 M-92.65 -63.71 C-98.64 -73.83, -105.37 -82.75, -108.22 -89.97" stroke="#000000" stroke-width="1" fill="none"></path></g></g><g transform="translate(295.5 547.5415788810177) rotate(42.51044707800085 47 12.5)"><text x="0" y="18" font-family="Virgil, Segoe UI Emoji" font-size="20px" fill="#000000" text-anchor="start" style="white-space: pre;" direction="ltr">.bind(this)</text></g><g stroke-linecap="round" transform="translate(410 431.0415788810177) rotate(0 28 28)"><path d="M14.68 3.76 C19.57 0.93, 27.9 0.33, 33.77 1.47 C39.65 2.6, 46.22 6.05, 49.93 10.58 C53.64 15.1, 56.31 22.61, 56.03 28.63 C55.76 34.66, 52.25 42.13, 48.27 46.72 C44.29 51.31, 38.09 55.24, 32.16 56.18 C26.23 57.12, 17.83 55.5, 12.69 52.34 C7.55 49.18, 3.17 42.87, 1.32 37.22 C-0.52 31.58, -1.53 24.54, 1.63 18.45 C4.78 12.37, 16.27 3.52, 20.28 0.71 C24.3 -2.1, 25.56 1.11, 25.71 1.58 M38.41 1.11 C43.77 2.63, 49.85 8.84, 52.48 14.41 C55.1 19.98, 55.33 28.52, 54.13 34.52 C52.93 40.52, 49.81 47.03, 45.28 50.39 C40.75 53.75, 33.06 55.02, 26.98 54.68 C20.9 54.34, 13.29 52.05, 8.79 48.34 C4.29 44.63, 0.56 38.22, -0.04 32.41 C-0.63 26.59, 1.71 18.45, 5.24 13.45 C8.76 8.44, 15.41 4.2, 21.12 2.37 C26.83 0.54, 36.69 2.38, 39.5 2.45 C42.32 2.52, 38.35 2.53, 38 2.79" stroke="#000000" stroke-width="1" fill="none"></path></g><g stroke-linecap="round"><g transform="translate(437.5 486.5415788810177) rotate(0 0.7312492638267258 48.36321418141944)"><path d="M0.62 0 C0.39 16.21, -0.1 80.15, -0.31 96.15 M-0.51 -1.05 C-0.45 15.47, 1.62 81.38, 1.98 97.77" stroke="#000000" stroke-width="1" fill="none"></path></g><g transform="translate(437.5 486.5415788810177) rotate(0 0.7312492638267258 48.36321418141944)"><path d="M-9.04 68.52 C-4.77 78.7, -0.76 92.82, 0.64 96.62 M-8.59 70.15 C-4.52 79.97, -1.7 90.99, 2.64 97.67" stroke="#000000" stroke-width="1" fill="none"></path></g><g transform="translate(437.5 486.5415788810177) rotate(0 0.7312492638267258 48.36321418141944)"><path d="M11.47 67.97 C7.8 78.47, 3.87 92.81, 0.64 96.62 M11.92 69.59 C8.29 79.74, 3.41 90.96, 2.64 97.67" stroke="#000000" stroke-width="1" fill="none"></path></g></g></svg>